<?xml version="1.0" encoding="UTF-8" standalone="no"?>
<!DOCTYPE svg PUBLIC "-//W3C//DTD SVG 1.1//EN"
 "http://www.w3.org/Graphics/SVG/1.1/DTD/svg11.dtd">
<!-- Generated by graphviz version 2.43.0 (0)
 -->
<!-- Title: G Pages: 1 -->
<svg width="388pt" height="868pt"
 viewBox="0.00 0.00 388.00 868.00" xmlns="http://www.w3.org/2000/svg" xmlns:xlink="http://www.w3.org/1999/xlink">
<g id="graph0" class="graph" transform="scale(1 1) rotate(0) translate(4 864)">
<title>G</title>
<polygon fill="white" stroke="transparent" points="-4,4 -4,-864 384,-864 384,4 -4,4"/>
<g id="clust1" class="cluster">
<title>cluster_Process_123456</title>
<polygon fill="none" stroke="lightblue" points="8,-8 8,-852 372,-852 372,-8 8,-8"/>
</g>
<!-- task_0 -->
<g id="node1" class="node">
<title>task_0</title>
<polygon fill="lightgrey" stroke="black" points="327.5,-772 190.5,-772 190.5,-736 327.5,-736 327.5,-772"/>
<text text-anchor="middle" x="259" y="-750.3" font-family="Times,serif" font-size="14.00">Заказ оформлен</text>
</g>
<!-- task_1 -->
<g id="node2" class="node">
<title>task_1</title>
<polygon fill="lightgrey" stroke="black" points="344,-700 102,-700 102,-664 344,-664 344,-700"/>
<text text-anchor="middle" x="223" y="-678.3" font-family="Times,serif" font-size="14.00">Поступление заказа сборщику</text>
</g>
<!-- task_0&#45;&gt;task_1 -->
<g id="edge4" class="edge">
<title>task_0&#45;&gt;task_1</title>
<path fill="none" stroke="black" d="M250.1,-735.7C246,-727.73 241.05,-718.1 236.51,-709.26"/>
<polygon fill="black" stroke="black" points="239.48,-707.4 231.8,-700.1 233.26,-710.6 239.48,-707.4"/>
</g>
<!-- task_9 -->
<g id="node10" class="node">
<title>task_9</title>
<polygon fill="lightgrey" stroke="black" points="293.5,-196 168.5,-196 168.5,-160 293.5,-160 293.5,-196"/>
<text text-anchor="middle" x="231" y="-174.3" font-family="Times,serif" font-size="14.00">Отмена заказа</text>
</g>
<!-- task_0&#45;&gt;task_9 -->
<g id="edge5" class="edge">
<title>task_0&#45;&gt;task_9</title>
<path fill="none" stroke="black" d="M308.67,-735.84C325.39,-727.59 342.45,-715.94 353,-700 374.97,-666.81 363,-650.8 363,-611 363,-611 363,-611 363,-321 363,-267.4 311.93,-225.54 273.32,-201.55"/>
<polygon fill="black" stroke="black" points="274.68,-198.29 264.31,-196.13 271.07,-204.29 274.68,-198.29"/>
</g>
<!-- task_2 -->
<g id="node3" class="node">
<title>task_2</title>
<polygon fill="lightgrey" stroke="black" points="284.5,-628 161.5,-628 161.5,-592 284.5,-592 284.5,-628"/>
<text text-anchor="middle" x="223" y="-606.3" font-family="Times,serif" font-size="14.00">Сборка заказа</text>
</g>
<!-- task_1&#45;&gt;task_2 -->
<g id="edge6" class="edge">
<title>task_1&#45;&gt;task_2</title>
<path fill="none" stroke="black" d="M217.08,-663.7C216.29,-655.98 216.06,-646.71 216.4,-638.11"/>
<polygon fill="black" stroke="black" points="219.9,-638.32 217.1,-628.1 212.92,-637.84 219.9,-638.32"/>
</g>
<!-- task_2&#45;&gt;task_1 -->
<g id="edge7" class="edge">
<title>task_2&#45;&gt;task_1</title>
<path fill="none" stroke="black" d="M228.9,-628.1C229.7,-635.79 229.94,-645.05 229.6,-653.67"/>
<polygon fill="black" stroke="black" points="226.11,-653.48 228.92,-663.7 233.09,-653.96 226.11,-653.48"/>
</g>
<!-- task_3 -->
<g id="node4" class="node">
<title>task_3</title>
<polygon fill="lightgrey" stroke="black" points="156,-556 16,-556 16,-520 156,-520 156,-556"/>
<text text-anchor="middle" x="86" y="-534.3" font-family="Times,serif" font-size="14.00">Упаковка товара</text>
</g>
<!-- task_2&#45;&gt;task_3 -->
<g id="edge9" class="edge">
<title>task_2&#45;&gt;task_3</title>
<path fill="none" stroke="black" d="M189.49,-591.88C171.16,-582.51 148.26,-570.81 128.67,-560.8"/>
<polygon fill="black" stroke="black" points="130.14,-557.62 119.64,-556.19 126.96,-563.86 130.14,-557.62"/>
</g>
<!-- task_10 -->
<g id="node11" class="node">
<title>task_10</title>
<polygon fill="lightgrey" stroke="black" points="325.5,-556 192.5,-556 192.5,-520 325.5,-520 325.5,-556"/>
<text text-anchor="middle" x="259" y="-534.3" font-family="Times,serif" font-size="14.00">Звонок клиенту</text>
</g>
<!-- task_2&#45;&gt;task_10 -->
<g id="edge8" class="edge">
<title>task_2&#45;&gt;task_10</title>
<path fill="none" stroke="black" d="M225.98,-591.7C229.29,-583.64 234.1,-573.89 239.09,-564.98"/>
<polygon fill="black" stroke="black" points="242.26,-566.5 244.31,-556.1 236.22,-562.95 242.26,-566.5"/>
</g>
<!-- task_3&#45;&gt;task_3 -->
<g id="edge11" class="edge">
<title>task_3&#45;&gt;task_3</title>
<path fill="none" stroke="black" d="M156.07,-550.31C166.75,-548.43 174,-544.33 174,-538 174,-533.85 170.88,-530.65 165.71,-528.42"/>
<polygon fill="black" stroke="black" points="166.65,-525.04 156.07,-525.69 164.74,-531.78 166.65,-525.04"/>
</g>
<!-- task_4 -->
<g id="node5" class="node">
<title>task_4</title>
<polygon fill="lightgrey" stroke="black" points="154,-484 84,-484 84,-448 154,-448 154,-484"/>
<text text-anchor="middle" x="119" y="-462.3" font-family="Times,serif" font-size="14.00">Оплата</text>
</g>
<!-- task_3&#45;&gt;task_4 -->
<g id="edge10" class="edge">
<title>task_3&#45;&gt;task_4</title>
<path fill="none" stroke="black" d="M94.16,-519.7C97.91,-511.73 102.45,-502.1 106.62,-493.26"/>
<polygon fill="black" stroke="black" points="109.84,-494.64 110.94,-484.1 103.51,-491.66 109.84,-494.64"/>
</g>
<!-- task_4&#45;&gt;task_4 -->
<g id="edge13" class="edge">
<title>task_4&#45;&gt;task_4</title>
<path fill="none" stroke="black" d="M154.17,-479.45C164.24,-478.92 172,-474.44 172,-466 172,-460.73 168.97,-457 164.23,-454.81"/>
<polygon fill="black" stroke="black" points="164.69,-451.33 154.17,-452.55 163.16,-458.16 164.69,-451.33"/>
</g>
<!-- task_5 -->
<g id="node6" class="node">
<title>task_5</title>
<polygon fill="lightgrey" stroke="black" points="222,-412 16,-412 16,-376 222,-376 222,-412"/>
<text text-anchor="middle" x="119" y="-390.3" font-family="Times,serif" font-size="14.00">Передача товара курьеру</text>
</g>
<!-- task_4&#45;&gt;task_5 -->
<g id="edge12" class="edge">
<title>task_4&#45;&gt;task_5</title>
<path fill="none" stroke="black" d="M119,-447.7C119,-439.98 119,-430.71 119,-422.11"/>
<polygon fill="black" stroke="black" points="122.5,-422.1 119,-412.1 115.5,-422.1 122.5,-422.1"/>
</g>
<!-- task_4&#45;&gt;task_9 -->
<g id="edge14" class="edge">
<title>task_4&#45;&gt;task_9</title>
<path fill="none" stroke="black" d="M154.23,-458.68C180.37,-451.95 214.26,-438.45 231,-412 271.65,-347.79 252.64,-252.34 239.64,-206.08"/>
<polygon fill="black" stroke="black" points="242.91,-204.82 236.74,-196.21 236.2,-206.79 242.91,-204.82"/>
</g>
<!-- task_6 -->
<g id="node7" class="node">
<title>task_6</title>
<polygon fill="lightgrey" stroke="black" points="200,-340 62,-340 62,-304 200,-304 200,-340"/>
<text text-anchor="middle" x="131" y="-318.3" font-family="Times,serif" font-size="14.00">Доставка заказа</text>
</g>
<!-- task_5&#45;&gt;task_6 -->
<g id="edge15" class="edge">
<title>task_5&#45;&gt;task_6</title>
<path fill="none" stroke="black" d="M121.97,-375.7C123.29,-367.98 124.88,-358.71 126.35,-350.11"/>
<polygon fill="black" stroke="black" points="129.83,-350.55 128.07,-340.1 122.93,-349.37 129.83,-350.55"/>
</g>
<!-- task_7 -->
<g id="node8" class="node">
<title>task_7</title>
<polygon fill="lightgrey" stroke="black" points="202,-268 60,-268 60,-232 202,-232 202,-268"/>
<text text-anchor="middle" x="131" y="-246.3" font-family="Times,serif" font-size="14.00">Проверка заказа</text>
</g>
<!-- task_6&#45;&gt;task_7 -->
<g id="edge16" class="edge">
<title>task_6&#45;&gt;task_7</title>
<path fill="none" stroke="black" d="M131,-303.7C131,-295.98 131,-286.71 131,-278.11"/>
<polygon fill="black" stroke="black" points="134.5,-278.1 131,-268.1 127.5,-278.1 134.5,-278.1"/>
</g>
<!-- task_6&#45;&gt;task_9 -->
<g id="edge17" class="edge">
<title>task_6&#45;&gt;task_9</title>
<path fill="none" stroke="black" d="M168.82,-303.91C184.07,-295.21 200.51,-283.23 211,-268 223.53,-249.82 228.34,-225.05 230.13,-206.25"/>
<polygon fill="black" stroke="black" points="233.62,-206.47 230.85,-196.24 226.64,-205.96 233.62,-206.47"/>
</g>
<!-- task_8 -->
<g id="node9" class="node">
<title>task_8</title>
<polygon fill="lightgrey" stroke="black" points="211.5,-124 74.5,-124 74.5,-88 211.5,-88 211.5,-124"/>
<text text-anchor="middle" x="143" y="-102.3" font-family="Times,serif" font-size="14.00">Заказ доставлен</text>
</g>
<!-- task_7&#45;&gt;task_8 -->
<g id="edge18" class="edge">
<title>task_7&#45;&gt;task_8</title>
<path fill="none" stroke="black" d="M132.45,-231.87C134.49,-207.67 138.25,-163.21 140.69,-134.39"/>
<polygon fill="black" stroke="black" points="144.19,-134.45 141.55,-124.19 137.22,-133.86 144.19,-134.45"/>
</g>
<!-- task_7&#45;&gt;task_9 -->
<g id="edge19" class="edge">
<title>task_7&#45;&gt;task_9</title>
<path fill="none" stroke="black" d="M155.46,-231.88C168.3,-222.89 184.2,-211.76 198.09,-202.03"/>
<polygon fill="black" stroke="black" points="200.26,-204.79 206.44,-196.19 196.24,-199.06 200.26,-204.79"/>
</g>
<!-- endEvent_0 -->
<g id="node13" class="node">
<title>endEvent_0</title>
<ellipse fill="red" stroke="black" cx="187" cy="-34" rx="27" ry="18"/>
</g>
<!-- task_8&#45;&gt;endEvent_0 -->
<g id="edge2" class="edge">
<title>task_8&#45;&gt;endEvent_0</title>
<path fill="none" stroke="black" d="M153.88,-87.7C159.2,-79.23 165.7,-68.89 171.53,-59.61"/>
<polygon fill="black" stroke="black" points="174.49,-61.47 176.85,-51.14 168.57,-57.75 174.49,-61.47"/>
</g>
<!-- task_9&#45;&gt;task_8 -->
<g id="edge23" class="edge">
<title>task_9&#45;&gt;task_8</title>
<path fill="none" stroke="black" d="M209.25,-159.7C198.16,-150.88 184.53,-140.03 172.51,-130.47"/>
<polygon fill="black" stroke="black" points="174.51,-127.59 164.5,-124.1 170.15,-133.07 174.51,-127.59"/>
</g>
<!-- task_9&#45;&gt;endEvent_0 -->
<g id="edge3" class="edge">
<title>task_9&#45;&gt;endEvent_0</title>
<path fill="none" stroke="black" d="M231.36,-159.75C231.21,-141.43 229.48,-111.88 221,-88 217.32,-77.65 211.29,-67.25 205.33,-58.45"/>
<polygon fill="black" stroke="black" points="208.12,-56.34 199.47,-50.23 202.42,-60.41 208.12,-56.34"/>
</g>
<!-- task_10&#45;&gt;task_2 -->
<g id="edge20" class="edge">
<title>task_10&#45;&gt;task_2</title>
<path fill="none" stroke="black" d="M256.1,-556.1C252.81,-564.13 248.02,-573.87 243.03,-582.8"/>
<polygon fill="black" stroke="black" points="239.85,-581.3 237.81,-591.7 245.89,-584.84 239.85,-581.3"/>
</g>
<!-- task_10&#45;&gt;task_9 -->
<g id="edge22" class="edge">
<title>task_10&#45;&gt;task_9</title>
<path fill="none" stroke="black" d="M259.4,-519.95C259.98,-493.29 261,-440.12 261,-395 261,-395 261,-395 261,-321 261,-281.32 263.58,-270.5 254,-232 251.77,-223.05 248.17,-213.68 244.48,-205.36"/>
<polygon fill="black" stroke="black" points="247.58,-203.73 240.17,-196.16 241.24,-206.7 247.58,-203.73"/>
</g>
<!-- task_10&#45;&gt;task_10 -->
<g id="edge21" class="edge">
<title>task_10&#45;&gt;task_10</title>
<path fill="none" stroke="black" d="M325.6,-550.43C336.22,-548.61 343.5,-544.47 343.5,-538 343.5,-533.86 340.51,-530.67 335.57,-528.43"/>
<polygon fill="black" stroke="black" points="336.17,-524.96 325.6,-525.57 334.24,-531.69 336.17,-524.96"/>
</g>
<!-- startEvent_0 -->
<g id="node12" class="node">
<title>startEvent_0</title>
<ellipse fill="green" stroke="black" cx="259" cy="-826" rx="27" ry="18"/>
</g>
<!-- startEvent_0&#45;&gt;task_0 -->
<g id="edge1" class="edge">
<title>startEvent_0&#45;&gt;task_0</title>
<path fill="none" stroke="black" d="M259,-807.7C259,-799.98 259,-790.71 259,-782.11"/>
<polygon fill="black" stroke="black" points="262.5,-782.1 259,-772.1 255.5,-782.1 262.5,-782.1"/>
</g>
</g>
</svg>
